<?xml version="1.0" standalone="no"?>
<!DOCTYPE svg PUBLIC "-//W3C//DTD SVG 20010904//EN"
 "http://www.w3.org/TR/2001/REC-SVG-20010904/DTD/svg10.dtd">
<svg version="1.0" xmlns="http://www.w3.org/2000/svg"
 width="771.000000pt" height="771.000000pt" viewBox="0 0 771.000000 771.000000"
 preserveAspectRatio="xMidYMid meet">
<metadata>
Created by potrace 1.11, written by Peter Selinger 2001-2013
</metadata>
<g transform="translate(0.000000,771.000000) scale(0.100000,-0.100000)"
fill="#000000" stroke="none">
<path d="M1229 6317 c-58 -22 -103 -53 -153 -107 -58 -62 -76 -103 -76 -173 0
-138 62 -221 411 -547 382 -359 849 -815 845 -825 -64 -137 -116 -299 -142
-443 l-17 -94 -31 6 c-17 3 -92 8 -166 12 -239 11 -408 -29 -694 -164 -137
-64 -170 -76 -227 -80 -82 -6 -182 15 -334 70 -60 22 -119 42 -129 45 -28 9
119 -181 229 -296 123 -128 235 -205 350 -241 22 -7 44 -16 48 -20 13 -11
-109 -95 -196 -135 -143 -66 -368 -117 -586 -133 -102 -7 -105 -8 -112 -34 -8
-31 -17 -26 126 -74 226 -78 391 -108 585 -108 220 1 356 35 611 154 80 38
158 72 172 76 l27 6 0 -70 c0 -167 34 -188 501 -306 l207 -53 109 -111 109
-112 -156 -153 c-85 -84 -182 -176 -215 -204 -184 -154 -380 -251 -616 -302
-175 -37 -292 -44 -674 -38 -494 8 -679 -5 -776 -54 -69 -34 -149 -151 -149
-216 0 -41 30 -77 82 -98 45 -17 294 -51 603 -81 225 -23 801 -26 940 -6 204
29 342 77 444 154 97 74 341 295 688 625 l161 154 73 -36 c92 -47 274 -107
409 -137 93 -20 133 -22 345 -22 212 0 252 2 345 22 135 30 317 90 409 137
l73 36 165 -158 c319 -304 588 -549 684 -621 102 -77 240 -125 444 -154 139
-20 715 -17 940 6 309 30 558 64 603 81 52 21 82 57 82 98 0 65 -80 182 -149
216 -97 49 -282 62 -776 54 -382 -6 -499 1 -674 38 -136 30 -232 64 -352 126
-148 76 -257 161 -460 360 l-175 172 109 112 109 112 207 53 c467 118 501 139
501 306 l0 70 27 -6 c14 -4 92 -38 172 -76 255 -119 391 -153 611 -154 197 0
384 35 610 116 91 33 95 35 95 64 l0 29 -105 7 c-219 16 -443 67 -587 133 -87
40 -209 124 -196 135 4 4 26 13 48 20 115 36 227 113 350 241 110 115 257 305
229 296 -10 -3 -68 -23 -129 -45 -152 -55 -252 -76 -334 -70 -57 4 -90 16
-227 80 -286 135 -455 175 -694 164 -74 -4 -149 -9 -166 -12 l-30 -6 -22 111
c-25 126 -71 276 -114 371 l-29 65 83 80 c330 319 679 653 813 779 283 263
365 375 365 499 0 78 -25 130 -94 195 -74 71 -127 96 -201 97 -124 0 -216 -73
-534 -425 -97 -107 -286 -312 -421 -454 -135 -143 -259 -275 -276 -295 l-32
-36 -63 60 c-341 325 -769 497 -1234 497 -465 0 -893 -172 -1234 -497 l-63
-60 -32 36 c-17 20 -141 152 -276 295 -135 143 -326 349 -426 459 -302 333
-393 409 -510 420 -29 3 -64 0 -85 -8z m158 -73 c71 -35 165 -125 377 -359 99
-110 282 -308 406 -439 124 -132 253 -269 287 -306 l62 -67 -55 -69 c-30 -38
-82 -113 -116 -166 -33 -54 -63 -98 -66 -98 -3 0 -49 42 -101 93 -206 199
-666 640 -835 801 -249 237 -315 339 -287 443 23 86 154 193 237 193 23 0 62
-11 91 -26z m5119 -4 c65 -37 131 -111 145 -163 28 -104 -38 -206 -282 -438
-175 -166 -649 -622 -835 -801 -55 -54 -103 -98 -106 -98 -4 0 -27 34 -53 76
-25 42 -72 110 -103 152 -31 41 -62 82 -69 91 -10 14 23 54 229 271 132 140
343 368 468 505 258 285 349 373 423 409 68 35 118 34 183 -4z m-2556 -1335
c114 -314 117 -320 135 -305 9 7 56 64 107 127 50 63 94 111 98 106 4 -4 47
-118 95 -253 104 -293 111 -310 124 -310 5 0 54 56 109 126 85 105 102 122
110 107 5 -10 53 -141 108 -290 54 -150 103 -273 109 -273 5 0 55 56 109 125
55 69 103 122 106 118 4 -5 37 -86 74 -182 45 -117 63 -177 55 -181 -14 -9
-233 -55 -379 -79 -358 -60 -663 -85 -1055 -85 -392 0 -694 24 -1055 85 -174
29 -410 81 -410 90 0 8 48 122 125 297 15 34 31 62 35 62 3 0 22 -19 40 -42
132 -166 173 -210 185 -196 6 7 51 123 100 258 48 135 94 260 101 279 l14 34
101 -127 c56 -70 107 -125 113 -123 6 2 56 128 111 280 55 151 103 278 106
282 4 3 53 -48 109 -115 56 -67 107 -119 113 -117 6 2 48 107 94 233 115 318
114 317 123 307 4 -4 44 -111 90 -238z m-1882 -831 c23 -6 23 -9 17 -83 -4
-42 -9 -78 -11 -80 -2 -2 -48 10 -103 28 -118 37 -132 38 -167 7 -21 -17 -29
-35 -33 -72 l-6 -48 -73 -13 c-103 -17 -153 -35 -347 -123 -163 -75 -265 -110
-317 -110 -33 0 -108 51 -192 130 -70 66 -170 179 -164 186 2 2 32 -5 66 -16
34 -11 100 -25 145 -31 111 -17 175 -1 367 90 265 125 381 152 630 147 91 -3
175 -8 188 -12z m3998 1 c124 -22 226 -57 394 -136 192 -91 256 -107 367 -90
45 6 111 20 145 31 34 11 64 18 66 16 2 -2 -23 -35 -56 -72 -115 -134 -250
-244 -300 -244 -52 0 -154 35 -317 110 -194 88 -244 106 -347 123 l-73 13 -6
48 c-4 37 -12 55 -33 72 -35 31 -50 30 -163 -6 -51 -16 -97 -30 -102 -30 -9 0
-25 149 -17 157 24 24 317 29 442 8z m-4055 -210 c1215 -362 2474 -362 3689 0
84 25 159 44 167 41 10 -4 13 -37 13 -145 l0 -140 -82 -25 c-445 -135 -918
-223 -1438 -268 -83 -7 -299 -12 -505 -12 -206 0 -422 5 -505 12 -520 45 -993
133 -1437 268 l-83 25 0 138 c0 76 3 141 7 144 10 11 14 10 174 -38z m1319
-1211 c132 -13 282 -17 525 -17 346 0 539 11 842 51 155 21 156 20 19 -71
-288 -193 -638 -285 -978 -257 -221 18 -404 70 -595 169 -102 53 -262 158
-263 171 0 3 60 -2 133 -12 72 -9 215 -25 317 -34z m-522 -179 c34 -25 85 -59
114 -77 l51 -32 -70 -65 c-39 -36 -167 -156 -285 -267 -226 -214 -373 -346
-459 -414 -159 -126 -375 -171 -809 -172 -277 0 -438 10 -825 53 -306 34 -355
48 -355 97 0 40 66 132 115 159 77 43 148 48 635 45 269 -1 502 2 570 8 314
30 575 124 794 287 79 59 365 325 424 395 13 16 27 28 31 28 4 0 35 -20 69
-45z m2320 -110 c306 -296 431 -382 681 -469 237 -83 388 -97 981 -94 487 3
556 -2 635 -45 48 -27 115 -119 115 -159 0 -49 -49 -63 -355 -97 -387 -43
-548 -53 -825 -53 -345 0 -562 32 -704 104 -94 47 -322 247 -774 678 l-142
136 94 62 c52 34 99 69 106 77 7 8 16 15 20 15 3 0 79 -70 168 -155z"/>
</g>
</svg>
